<?xml version="1.0" standalone="no"?>
<!DOCTYPE svg PUBLIC "-//W3C//DTD SVG 20010904//EN"
 "http://www.w3.org/TR/2001/REC-SVG-20010904/DTD/svg10.dtd">
<svg version="1.0" xmlns="http://www.w3.org/2000/svg"
 width="1854.000000pt" height="1854.000000pt" viewBox="0 0 1854.000000 1854.000000"
 preserveAspectRatio="xMidYMid meet">
<metadata>
Created by potrace 1.11, written by Peter Selinger 2001-2013
</metadata>
<g transform="translate(0.000000,1854.000000) scale(0.100000,-0.100000)"
fill="#000000" stroke="none">
<path d="M4617 15084 c-1 -1 -76 -5 -167 -9 -296 -13 -311 -13 -530 -31 -88
-7 -161 -14 -185 -18 -30 -4 -135 -16 -180 -21 -22 -2 -52 -6 -67 -10 -15 -4
-42 -8 -60 -10 -18 -1 -40 -5 -48 -8 -8 -3 -22 -6 -30 -6 -39 -3 -76 -9 -90
-14 -20 -7 -111 -26 -130 -26 -23 0 -63 -8 -82 -16 -9 -4 -22 -4 -28 0 -5 3
-10 2 -10 -4 0 -5 -8 -10 -17 -9 -22 0 -49 -6 -136 -31 -37 -11 -70 -20 -72
-20 -3 -1 -6 -1 -7 -2 -2 0 -10 -2 -18 -4 -8 -2 -25 -6 -38 -9 -12 -3 -32 -9
-45 -12 -12 -3 -26 -6 -32 -8 -5 -1 -35 -10 -65 -19 -30 -9 -58 -16 -63 -16
-4 -1 -23 -7 -42 -15 -19 -8 -35 -12 -35 -9 0 3 -7 0 -15 -7 -8 -7 -15 -9 -15
-5 0 4 -6 3 -12 -3 -7 -6 -16 -10 -21 -11 -14 0 -122 -43 -134 -53 -7 -6 -13
-8 -13 -4 0 9 -155 -70 -220 -112 -62 -40 -165 -119 -225 -172 -103 -91 -352
-352 -487 -510 -340 -399 -615 -893 -817 -1467 -28 -79 -48 -143 -44 -143 3 0
0 -7 -7 -15 -7 -8 -10 -15 -7 -15 4 0 -2 -20 -13 -45 -11 -25 -17 -45 -13 -45
3 0 0 -7 -7 -15 -6 -8 -9 -19 -5 -25 3 -5 2 -10 -3 -10 -5 0 -9 -6 -10 -12 -1
-15 -10 -53 -12 -53 -1 0 -3 -7 -5 -16 -1 -9 -11 -43 -21 -75 -22 -74 -21 -72
-39 -144 -2 -8 -4 -15 -5 -15 -1 0 -3 -9 -5 -20 -5 -26 -13 -60 -15 -60 -2 0
-6 -16 -14 -55 -5 -21 -14 -61 -22 -92 -1 -5 -2 -9 -4 -10 -2 -3 -2 -7 -15
-88 -4 -25 -11 -47 -16 -48 -5 -2 -7 -8 -3 -13 3 -5 0 -35 -7 -67 -7 -31 -13
-61 -15 -67 -1 -5 -5 -28 -8 -50 -4 -22 -11 -69 -17 -105 -6 -36 -13 -83 -15
-105 -2 -22 -7 -51 -10 -64 -3 -14 -7 -52 -10 -85 -2 -34 -6 -71 -9 -84 -2
-13 -7 -58 -10 -100 -4 -42 -9 -90 -12 -107 -3 -16 -5 -37 -5 -45 0 -8 -6
-100 -14 -205 -7 -104 -16 -253 -20 -330 -3 -77 -8 -153 -10 -170 -3 -16 -6
-277 -8 -580 -4 -501 -1 -641 19 -995 17 -304 65 -760 119 -1122 2 -15 9 -42
14 -60 6 -18 14 -51 18 -73 10 -55 10 -53 28 -113 8 -30 15 -57 14 -60 -1 -4
4 -20 11 -36 6 -16 13 -38 16 -50 2 -11 4 -21 5 -21 1 0 3 -8 6 -17 2 -10 6
-26 8 -35 3 -10 5 -19 6 -20 2 -2 3 -6 4 -10 2 -5 9 -28 16 -53 7 -25 14 -47
14 -50 1 -3 6 -18 13 -35 6 -16 15 -43 19 -60 10 -40 11 -45 14 -47 1 -2 3
-10 5 -18 1 -8 15 -51 30 -95 32 -95 36 -109 36 -112 0 -2 11 -33 25 -70 14
-38 39 -106 56 -153 101 -283 272 -670 388 -880 29 -52 60 -108 68 -125 8 -16
20 -33 26 -37 6 -4 11 -11 11 -15 1 -11 89 -143 115 -170 11 -13 20 -26 21
-30 0 -16 81 -103 280 -302 114 -113 216 -213 227 -223 126 -103 354 -260 387
-267 6 -1 17 -8 25 -15 24 -21 190 -106 190 -98 0 4 4 3 8 -3 7 -9 39 -26 115
-59 89 -39 223 -94 252 -102 6 -2 51 -17 100 -35 177 -62 375 -115 468 -124
37 -4 67 -11 67 -16 0 -5 236 -9 545 -9 300 0 545 4 545 8 0 5 6 9 13 9 172 6
456 47 747 109 91 19 179 37 195 40 43 9 48 10 65 17 8 4 29 9 45 11 17 2 37
6 45 9 24 9 173 49 195 52 11 2 21 4 23 5 1 2 7 4 12 5 6 1 11 3 13 5 1 1 11
4 22 6 11 3 25 6 30 8 6 1 25 6 43 10 40 10 84 31 77 38 -3 3 -8 16 -10 28 -2
13 -9 37 -15 55 l-11 32 -91 -28 c-50 -16 -103 -31 -117 -33 -14 -2 -26 -5
-26 -6 0 -1 -7 -3 -15 -5 -41 -10 -58 -15 -90 -25 -19 -6 -48 -14 -65 -17 -44
-8 -60 -11 -62 -13 -2 -2 -6 -3 -10 -4 -32 -8 -72 -17 -90 -21 -13 -3 -33 -7
-45 -10 -13 -3 -39 -8 -58 -11 -19 -3 -40 -10 -47 -16 -7 -5 -17 -7 -23 -3 -5
3 -16 3 -22 -1 -7 -5 -19 -9 -28 -10 -64 -8 -108 -16 -125 -21 -11 -3 -29 -7
-40 -8 -11 -1 -63 -10 -115 -19 -52 -9 -120 -19 -150 -22 -30 -4 -60 -10 -66
-15 -6 -5 -13 -6 -17 -3 -3 3 -45 1 -94 -5 -227 -30 -355 -36 -693 -35 -173 0
-335 4 -360 7 -25 4 -66 9 -92 11 -26 3 -51 7 -56 10 -5 3 -26 6 -46 8 -21 1
-40 6 -42 10 -3 4 -15 8 -27 8 -13 0 -66 13 -118 30 -52 16 -106 32 -120 34
-13 3 -24 5 -24 6 0 1 -7 3 -15 5 -8 2 -35 11 -60 20 -25 9 -52 18 -60 20 -29
6 -336 134 -410 170 -204 102 -399 224 -545 343 -110 89 -459 443 -532 538
-67 89 -168 250 -248 397 -29 54 -53 99 -53 100 1 1 -18 41 -41 88 -22 47 -41
91 -41 97 0 7 -5 12 -10 12 -6 0 -9 3 -8 8 0 4 -7 25 -16 47 -82 187 -120 284
-192 480 -41 110 -133 377 -139 400 -1 6 -5 17 -8 25 -8 20 -37 124 -36 130 0
3 -7 22 -16 43 -8 20 -12 37 -9 37 4 0 1 6 -5 13 -6 8 -12 22 -14 33 -2 10 -9
39 -16 64 -8 25 -14 50 -16 55 -1 6 -5 17 -8 25 -5 15 -17 63 -18 77 0 5 -5
14 -11 21 -6 6 -8 12 -5 12 3 0 1 15 -4 33 -11 37 -21 86 -22 105 0 6 -3 12
-7 12 -4 0 -6 10 -5 23 1 12 0 27 -4 32 -8 14 -9 21 -26 150 -11 83 -12 90
-14 90 -2 0 -4 16 -6 35 -2 19 -6 58 -9 85 -3 28 -8 75 -10 105 -9 86 -16 152
-22 194 -8 48 -10 81 -18 226 -4 63 -9 125 -12 138 -3 13 -7 83 -10 155 -2 73
-7 166 -11 207 -8 100 -8 1102 0 1210 4 47 9 150 12 228 3 79 7 154 10 165 2
12 7 78 10 147 3 69 7 136 9 150 3 14 7 64 11 112 3 48 8 99 11 113 2 14 6 58
9 98 2 40 5 72 6 72 1 0 3 18 5 40 1 22 3 42 5 45 1 3 4 19 6 35 10 84 13 106
27 193 3 15 7 43 10 62 3 19 8 46 11 60 3 14 8 40 11 59 3 18 8 43 10 55 3 11
7 30 9 41 2 11 6 34 10 50 4 17 8 39 9 50 1 12 5 25 8 30 10 18 21 70 19 87
-1 9 3 19 8 22 6 4 8 13 5 20 -3 8 0 17 5 21 6 3 9 11 6 16 -4 5 -3 15 1 21 5
7 9 19 10 28 6 41 16 76 26 87 6 7 8 13 5 13 -2 0 13 60 35 133 21 72 41 139
43 147 2 8 4 16 5 18 2 1 3 5 4 10 24 89 126 381 162 460 13 29 24 55 24 59 0
30 199 428 289 578 10 17 28 47 40 68 12 21 26 44 32 50 6 7 23 31 37 53 114
177 268 371 452 568 188 202 385 385 476 443 109 70 354 186 415 197 8 1 41
11 74 20 79 24 90 27 92 27 2 0 21 6 44 14 23 9 54 18 68 21 14 2 36 7 48 10
12 2 34 9 48 14 14 5 25 7 25 5 0 -2 11 0 25 5 14 5 36 12 48 14 12 3 33 8 47
11 14 3 32 8 40 10 8 2 15 4 15 5 0 1 15 3 34 5 18 2 45 8 60 14 14 6 38 13
54 16 15 3 39 7 55 10 15 3 41 8 57 12 42 9 54 11 100 17 22 3 54 8 70 11 17
2 53 7 80 10 28 4 61 8 75 11 34 7 71 11 165 19 44 3 91 8 105 11 14 2 63 7
110 9 47 3 110 8 140 11 97 10 214 12 730 12 481 0 539 -1 655 -12 28 -3 90
-7 138 -10 73 -5 149 -12 202 -20 46 -8 133 -80 205 -172 8 -10 33 -41 54 -69
62 -78 144 -153 210 -192 34 -19 91 -59 128 -89 63 -51 88 -64 88 -46 0 4 16
25 36 46 l37 40 -29 24 c-67 55 -142 110 -179 132 -87 52 -128 92 -238 233
-61 78 -101 118 -133 133 -19 9 -31 20 -28 25 3 5 2 9 -3 8 -22 -4 -34 2 -27
14 4 6 4 9 -1 5 -4 -4 -25 2 -46 13 -40 20 -78 27 -189 34 -36 2 -99 6 -140
10 -41 3 -97 7 -125 9 -152 12 -858 28 -868 20z"/>
<path d="M5999 14325 c-3 -2 -16 -7 -30 -9 -13 -2 -25 -5 -26 -7 -2 -1 -7 -3
-13 -4 -5 -1 -12 -4 -15 -5 -3 -1 -8 -3 -12 -4 -47 -11 -173 -100 -253 -178
-105 -102 -228 -289 -325 -493 -31 -66 -63 -132 -71 -147 -8 -16 -13 -28 -9
-28 3 0 -1 -10 -10 -23 -8 -13 -12 -27 -8 -30 3 -4 2 -7 -4 -7 -6 0 -14 -15
-18 -32 -4 -18 -9 -35 -10 -38 -1 -3 -6 -16 -12 -30 -6 -14 -18 -42 -26 -62
-9 -21 -13 -38 -10 -38 3 0 0 -7 -7 -15 -7 -8 -10 -15 -7 -15 3 0 -1 -16 -9
-35 -8 -19 -11 -35 -7 -35 5 0 3 -4 -2 -8 -9 -6 -29 -60 -41 -107 -1 -5 -14
-50 -29 -100 -23 -75 -43 -152 -81 -300 -3 -11 -7 -31 -10 -45 -3 -14 -11 -50
-19 -80 -76 -300 -175 -899 -229 -1380 -14 -124 -27 -268 -25 -276 1 -5 -1
-20 -4 -34 -6 -25 -28 -323 -42 -589 -26 -481 -27 -1365 -1 -1796 3 -44 7
-125 10 -180 5 -96 22 -330 31 -425 3 -25 7 -74 10 -110 16 -175 83 -714 99
-796 2 -12 7 -39 10 -60 26 -165 55 -324 80 -449 16 -78 77 -354 82 -370 4
-11 7 -29 9 -40 1 -11 5 -27 8 -35 9 -23 68 -242 72 -266 1 -12 8 -31 14 -43
7 -11 10 -21 7 -21 -3 0 2 -16 10 -35 8 -19 12 -35 9 -35 -2 0 6 -25 20 -55
13 -30 22 -55 20 -55 -2 0 3 -19 11 -42 9 -24 17 -47 18 -53 2 -5 9 -23 15
-40 7 -16 26 -64 41 -105 91 -243 242 -519 365 -669 45 -56 153 -159 196 -188
44 -31 169 -95 169 -87 0 2 11 -1 25 -6 14 -5 51 -12 83 -16 174 -18 373 83
530 269 42 49 30 62 -53 61 -58 -1 -115 -23 -115 -44 0 -5 -28 -29 -62 -54
-35 -25 -69 -51 -75 -56 -7 -6 -13 -8 -13 -5 0 3 -14 -2 -31 -11 -61 -31 -183
-36 -254 -10 -148 55 -290 194 -424 416 -56 92 -167 316 -201 405 -12 33 -26
69 -31 80 -10 24 -26 67 -28 77 -1 4 -8 23 -17 43 -8 19 -11 35 -7 35 5 0 3 4
-4 8 -6 4 -13 19 -15 32 -2 14 -6 30 -9 35 -8 12 -40 109 -44 133 -2 9 -4 17
-5 17 -1 0 -3 8 -6 18 -2 9 -6 25 -8 35 -3 9 -5 17 -6 17 -1 0 -4 10 -13 45
-2 8 -12 41 -21 74 -10 32 -20 66 -21 75 -2 9 -4 18 -5 21 -1 3 -2 13 -1 23 1
9 -2 17 -6 17 -5 0 -10 11 -11 24 -1 13 -9 50 -18 82 -9 33 -16 67 -16 77 1 9
-2 17 -6 17 -4 0 -8 16 -9 36 -1 20 -5 44 -9 53 -3 9 -8 25 -9 36 -5 39 -17
101 -30 155 -7 30 -28 141 -45 245 -17 105 -33 201 -35 215 -22 115 -84 633
-105 865 -16 187 -39 533 -45 680 -2 77 -8 184 -11 238 -9 134 -9 962 -1 1167
17 389 49 871 73 1090 47 431 111 876 159 1115 8 39 16 81 19 95 2 14 9 48 15
75 6 28 13 61 15 75 3 14 10 43 15 64 5 22 9 42 9 45 0 3 1 9 2 14 1 4 4 12 5
17 1 6 3 11 5 13 1 1 3 9 5 17 2 8 6 26 9 40 3 14 7 35 10 48 3 13 8 32 11 42
3 10 8 28 10 39 3 12 7 30 10 41 3 11 8 30 11 43 7 29 10 39 17 57 3 8 9 29
13 45 10 41 11 45 14 48 1 1 3 10 6 20 2 9 6 25 8 35 3 9 5 17 6 17 1 0 3 7 5
16 10 50 166 471 182 490 7 8 13 21 13 27 0 7 23 58 51 115 144 288 301 482
462 571 26 14 49 26 52 26 3 0 6 0 8 1 20 6 103 21 112 20 23 -1 81 -10 95
-14 36 -10 120 -47 130 -57 3 -3 19 -16 35 -29 76 -57 135 -123 228 -252 33
-46 77 -120 77 -129 0 -6 5 -10 11 -10 5 0 8 -4 4 -9 -3 -5 -1 -12 4 -15 21
-13 145 -286 214 -471 19 -49 37 -89 41 -87 3 1 35 2 71 2 l65 0 -15 33 c-8
17 -30 75 -49 127 -71 196 -194 451 -281 585 -22 33 -38 63 -37 68 1 4 -2 7
-6 7 -5 0 -24 21 -43 48 -45 63 -173 190 -231 230 -99 68 -204 102 -319 102
-42 0 -78 -2 -80 -5z"/>
<path d="M6210 12176 c-6 -6 -10 -7 -10 -3 0 11 -71 -27 -104 -56 -20 -18 -24
-26 -15 -30 10 -4 10 -6 -2 -6 -9 -1 -28 -18 -42 -38 -29 -42 -109 -213 -100
-213 3 0 1 -6 -5 -12 -6 -7 -10 -15 -9 -18 0 -3 -11 -43 -26 -90 -14 -47 -28
-96 -31 -110 -3 -14 -8 -36 -11 -50 -3 -14 -8 -35 -11 -47 -2 -13 -6 -35 -10
-50 -3 -16 -7 -39 -9 -53 -1 -14 -4 -25 -5 -25 -2 0 -9 -33 -15 -75 -2 -19 -7
-46 -10 -60 -3 -14 -8 -41 -10 -60 -3 -19 -8 -53 -11 -75 -3 -22 -7 -53 -8
-70 -2 -16 -5 -30 -6 -30 0 0 -3 -22 -5 -50 -2 -27 -7 -72 -10 -100 -4 -27 -8
-66 -10 -85 -2 -19 -6 -62 -10 -95 -7 -62 -9 -98 -19 -250 -36 -563 -36 -1249
0 -2030 9 -202 25 -405 49 -635 15 -141 24 -212 30 -245 3 -16 7 -46 9 -65 2
-19 6 -42 9 -50 5 -15 29 -149 33 -182 1 -10 2 -19 4 -20 2 -4 10 -37 15 -63
2 -11 4 -20 5 -20 1 0 3 -10 6 -23 15 -82 112 -337 134 -352 4 -3 10 -15 14
-26 10 -33 106 -128 160 -159 80 -47 221 -43 281 7 50 42 76 73 106 129 13 24
27 46 32 47 4 2 5 8 1 13 -3 5 0 9 6 9 6 0 9 4 5 9 -3 5 1 15 8 23 7 7 14 18
15 23 5 24 25 81 33 91 5 6 6 13 3 17 -3 3 0 16 7 29 7 12 14 30 15 38 1 8 13
61 28 117 15 56 35 149 46 205 11 57 21 112 24 124 2 12 7 45 11 75 3 30 8 61
10 69 8 29 45 368 59 545 15 182 20 265 32 522 5 120 9 143 23 147 9 2 2623 3
5808 2 l5793 -1 0 111 c0 81 -3 113 -12 116 -11 3 -11809 2 -11830 -1 -3 -1
-6 -63 -7 -138 0 -164 -7 -371 -16 -468 -3 -38 -8 -115 -11 -170 -6 -99 -10
-148 -19 -255 -8 -87 -14 -143 -19 -175 -3 -16 -7 -52 -10 -80 -7 -54 -10 -73
-21 -150 -4 -28 -9 -63 -10 -80 -2 -16 -4 -30 -5 -30 -1 0 -4 -11 -6 -25 -2
-14 -6 -37 -9 -52 -3 -16 -7 -38 -9 -50 -3 -13 -7 -34 -10 -48 -4 -14 -8 -36
-11 -50 -9 -48 -23 -105 -25 -105 -1 0 -3 -9 -5 -20 -5 -26 -13 -60 -15 -60
-1 0 -3 -10 -5 -21 -3 -12 -10 -34 -16 -50 -7 -16 -13 -31 -13 -34 -1 -3 -12
-32 -25 -65 -33 -81 -77 -145 -101 -145 -53 0 -142 135 -194 292 -26 79 -73
282 -81 346 -3 20 -11 75 -19 122 -8 47 -15 92 -15 100 -5 56 -20 168 -26 200
-3 14 -8 68 -11 120 -4 52 -8 115 -10 140 -2 25 -6 81 -8 125 -3 44 -8 132
-12 195 -4 63 -7 154 -8 202 -1 49 -4 88 -8 88 -4 0 -3 11 2 25 5 14 6 25 2
25 -9 0 -13 218 -13 760 0 489 3 670 14 687 4 6 3 14 -3 18 -6 4 -8 10 -5 15
3 5 8 46 11 92 12 193 22 323 29 393 3 28 7 70 10 95 3 25 5 62 4 83 0 20 4
37 9 37 5 0 8 12 6 26 -1 14 2 49 7 78 5 28 11 67 13 86 9 74 14 108 31 205 9
55 19 104 22 108 2 4 6 20 8 36 6 46 54 220 82 296 42 113 66 154 163 275 84
105 90 115 74 127 -41 30 -154 49 -174 29z"/>
<path d="M10529 10825 c-3 0 -9 -86 -9 -112 1 -42 0 -53 -1 -102 -1 -27 1 -54
5 -60 4 -6 2 -11 -4 -11 -7 0 -8 -6 -2 -17 8 -19 8 -110 -1 -119 -3 -3 -1 -18
3 -34 6 -20 5 -30 -3 -34 -8 -3 -8 -5 -1 -5 9 -1 8 -51 -1 -51 -1 0 -19 15
-38 33 -74 67 -237 101 -374 79 -93 -16 -199 -69 -263 -133 -109 -108 -154
-224 -149 -386 2 -91 19 -156 61 -235 29 -55 115 -148 137 -148 6 0 11 -4 11
-9 0 -14 112 -59 179 -71 168 -30 344 23 436 134 l35 41 1 -42 c3 -83 4 -98
11 -108 4 -6 55 -10 124 -10 l118 0 -2 45 c-7 160 -7 392 0 396 5 3 5 11 1 17
-12 18 -10 191 2 199 7 5 7 8 0 8 -12 0 -14 398 -3 416 4 6 4 14 0 18 -11 12
-9 190 3 198 7 5 6 8 -1 8 -6 0 -10 17 -9 40 1 23 -3 44 -9 48 -8 4 -244 12
-257 7z m-146 -645 c91 -47 139 -120 136 -208 -1 -27 1 -54 5 -60 4 -7 2 -12
-5 -12 -9 0 -10 -3 -3 -10 14 -14 -1 -111 -22 -151 -84 -163 -351 -180 -467
-31 -28 36 -55 112 -59 167 -3 43 10 128 26 167 18 42 83 118 102 118 8 0 14
4 14 9 0 8 29 19 74 28 11 2 21 5 23 7 12 12 140 -5 176 -24z"/>
<path d="M11537 10764 c-1 -1 -24 -4 -52 -8 -96 -11 -120 -18 -201 -57 -64
-30 -136 -92 -172 -144 -29 -44 -51 -141 -46 -202 7 -80 38 -141 102 -202 68
-64 147 -103 329 -161 197 -63 260 -111 261 -202 1 -75 -44 -129 -130 -159
-42 -14 -77 -17 -163 -15 -60 2 -121 7 -135 10 -14 4 -35 9 -48 12 -41 8 -116
35 -139 50 -12 8 -26 14 -31 14 -5 0 -22 -42 -37 -92 -15 -51 -30 -98 -32
-104 -8 -23 153 -76 277 -92 98 -13 339 -6 366 10 5 3 24 9 43 13 63 14 172
78 219 130 89 99 113 208 78 350 -19 73 -112 167 -217 218 -42 20 -83 37 -91
37 -8 0 -18 3 -22 8 -4 4 -11 7 -14 8 -4 0 -27 6 -52 13 -25 7 -46 13 -48 12
-1 -1 -16 6 -32 14 -16 8 -32 15 -35 15 -3 -1 -31 11 -62 26 -72 36 -112 88
-108 143 4 53 30 86 94 118 92 46 276 39 419 -15 l54 -21 14 34 c8 19 14 39
14 45 0 6 7 24 15 39 8 16 17 42 20 59 5 29 3 31 -42 46 -74 23 -126 36 -179
42 -49 6 -212 12 -217 8z"/>
<path d="M6850 10740 c0 -3 -18 -4 -41 -2 -22 3 -44 0 -49 -4 -4 -5 -11 -56
-14 -114 -4 -58 -9 -123 -11 -145 -2 -22 -7 -89 -10 -150 -4 -60 -8 -126 -10
-145 -2 -19 -6 -77 -9 -128 -4 -52 -8 -117 -11 -145 -5 -53 -11 -138 -21 -282
-2 -44 -7 -106 -10 -137 -4 -43 -1 -58 8 -59 70 -6 241 -3 245 5 7 11 9 29 18
201 3 66 8 138 10 160 3 22 7 90 10 150 3 61 7 142 9 180 3 39 7 146 11 240 4
93 7 171 9 172 2 2 61 -212 71 -257 2 -8 15 -51 30 -95 15 -44 28 -84 30 -90
1 -5 5 -17 8 -25 15 -39 59 -166 61 -175 1 -5 7 -23 13 -40 6 -16 15 -39 19
-50 4 -11 8 -23 9 -27 2 -5 4 -10 5 -13 1 -3 3 -8 5 -12 1 -5 4 -15 8 -23 3
-8 25 -69 47 -135 59 -170 47 -159 170 -157 56 1 104 3 105 4 1 2 34 84 73
183 39 99 77 194 83 210 7 17 13 35 14 40 1 6 9 26 17 45 9 19 26 60 38 90 11
30 25 64 30 75 4 11 13 34 19 50 6 17 16 44 22 60 7 17 14 39 16 49 2 11 8 25
14 33 6 7 8 13 4 13 -4 0 -2 6 4 13 6 8 12 22 14 33 2 10 8 30 14 44 6 14 18
52 28 85 10 33 21 63 24 67 3 4 7 -39 8 -95 3 -238 8 -377 13 -377 3 0 6 -48
7 -108 0 -59 4 -156 7 -217 4 -60 9 -152 11 -204 2 -52 9 -97 14 -100 8 -5
235 -7 264 -2 5 0 6 5 3 9 -2 4 -7 62 -11 128 -3 65 -8 142 -10 169 -2 28 -6
97 -10 155 -3 58 -7 132 -10 165 -2 33 -7 107 -10 165 -3 58 -8 134 -11 170
-2 36 -7 106 -9 155 -8 137 -13 186 -18 192 -6 5 -357 7 -361 1 -11 -12 -66
-141 -66 -152 0 -7 -7 -19 -15 -26 -8 -6 -14 -15 -13 -18 0 -4 -1 -10 -2 -14
-1 -5 -3 -11 -5 -15 -1 -5 -6 -19 -12 -33 -126 -298 -214 -534 -253 -681 -11
-38 -30 -46 -28 -11 1 9 -8 50 -20 90 -51 169 -64 212 -64 219 0 5 -3 13 -7
18 -5 6 -16 37 -26 70 -10 33 -21 65 -25 70 -4 6 -17 39 -29 75 -13 36 -27 69
-32 75 -5 5 -9 16 -9 25 0 10 -6 30 -14 46 -16 35 -68 171 -67 179 0 2 -10 23
-22 46 l-22 41 -138 2 c-75 0 -137 -1 -137 -4z"/>
<path d="M12475 10633 c-33 -8 -82 -20 -110 -27 l-50 -13 0 -106 c0 -64 -4
-107 -10 -108 -5 -1 -37 -2 -70 -3 -33 -1 -64 -4 -70 -8 -11 -6 -13 -157 -3
-173 3 -6 38 -10 77 -9 39 1 71 -2 72 -5 0 -3 2 -123 4 -266 2 -143 5 -272 8
-286 8 -40 52 -121 84 -151 15 -15 51 -37 78 -50 44 -20 65 -22 170 -21 66 0
134 5 150 10 30 9 30 10 30 89 1 118 5 113 -79 107 -98 -8 -146 18 -164 87 -6
22 -12 441 -7 466 4 20 10 21 125 20 67 -1 124 1 128 4 9 6 11 179 2 181 -3 1
-43 3 -90 4 -47 2 -87 4 -90 5 -3 1 -9 1 -15 0 -38 -8 -55 -6 -59 9 -2 9 -4
66 -4 126 0 61 0 116 -1 123 -1 15 -29 14 -106 -5z"/>
<path d="M18220 10646 c-3 -2 -20 -7 -37 -10 -68 -12 -89 -17 -137 -29 l-48
-13 -2 -109 -1 -110 -77 0 -77 0 0 -92 c0 -66 3 -93 12 -94 7 -1 41 -2 77 -3
l65 -1 1 -250 c1 -146 6 -274 13 -306 33 -157 160 -238 354 -225 45 3 92 7
105 10 60 13 57 8 52 108 l-5 93 -79 -2 c-100 -2 -133 13 -157 74 -8 18 -13
112 -14 260 -1 203 1 232 14 236 9 2 69 3 134 3 l118 -1 -3 95 -3 95 -60 0
c-33 1 -66 4 -72 8 -6 4 -14 4 -17 -1 -6 -10 -93 -8 -104 2 -4 4 -7 65 -7 134
-1 120 -2 127 -21 130 -11 2 -22 1 -24 -2z"/>
<path d="M13535 10399 c-107 -8 -163 -17 -210 -33 -122 -42 -249 -146 -300
-245 -77 -153 -68 -346 23 -487 96 -146 260 -226 487 -235 10 -1 97 8 152 15
49 7 161 54 218 92 141 93 215 241 210 419 -2 79 -38 215 -56 215 -5 0 -9 6
-9 13 0 12 -13 31 -48 72 -53 61 -175 133 -257 152 -11 2 -27 6 -35 8 -8 2
-30 4 -48 4 -19 1 -31 5 -27 11 3 6 5 9 3 8 -2 0 -48 -5 -103 -9z m100 -193
c127 -45 197 -155 197 -306 -1 -190 -113 -313 -287 -313 -89 1 -149 26 -210
89 -25 26 -43 49 -40 52 2 2 -3 18 -11 34 -25 48 -34 153 -19 218 10 40 13 55
15 60 1 3 2 8 1 13 0 4 4 7 9 7 6 0 10 7 10 15 0 27 85 102 139 122 52 19 154
24 196 9z"/>
<path d="M17218 10405 c-2 -3 -22 -7 -44 -10 -60 -9 -98 -17 -129 -30 -95 -37
-129 -60 -202 -134 -37 -37 -103 -150 -109 -185 -1 -6 -7 -31 -12 -55 -13 -56
-8 -192 9 -251 20 -70 57 -130 115 -187 113 -111 257 -155 485 -149 70 2 131
6 136 9 5 3 27 8 49 11 46 7 55 9 112 25 33 9 42 16 42 34 -1 40 -36 152 -47
150 -6 -1 -26 -5 -44 -8 -18 -3 -35 -8 -38 -10 -29 -17 -263 -27 -324 -13 -23
5 -46 11 -52 12 -5 1 -30 12 -55 23 -66 31 -120 96 -134 161 l-8 32 380 0 380
0 5 38 c27 214 -97 437 -276 496 -9 3 -18 5 -20 4 -1 -1 -11 4 -23 10 -11 6
-54 14 -95 17 -41 4 -79 8 -86 10 -6 2 -13 2 -15 0z m87 -184 c0 -2 11 -5 25
-7 54 -10 122 -79 134 -136 3 -13 7 -33 10 -45 3 -13 2 -23 -2 -24 -22 -3
-479 -4 -489 -1 -14 4 -2 50 26 95 52 84 130 125 231 122 36 -1 65 -3 65 -4z"/>
<path d="M8970 10397 c-3 -3 -21 -7 -40 -10 -80 -12 -188 -64 -247 -117 -66
-60 -132 -164 -148 -234 -17 -72 -21 -108 -19 -166 4 -95 10 -125 45 -196 59
-124 187 -218 344 -255 84 -19 364 -17 425 4 23 8 103 28 120 30 26 3 28 18
10 88 -21 80 -20 76 -20 88 0 8 -23 8 -40 0 -3 -1 -9 -3 -15 -4 -5 -1 -21 -5
-35 -9 -14 -3 -39 -8 -55 -9 -17 -2 -35 -5 -40 -8 -14 -7 -204 -4 -243 4 -51
11 -114 38 -150 65 -37 28 -79 94 -84 132 l-3 25 377 3 378 2 6 26 c10 39 -4
183 -22 239 -23 70 -87 164 -140 205 -41 33 -150 85 -184 88 -69 7 -216 13
-220 9z m148 -177 c1 -1 7 -4 12 -5 6 -1 13 -4 18 -5 4 -1 10 -2 14 -2 10 2
99 -90 93 -96 -3 -3 0 -10 5 -17 5 -6 11 -29 12 -50 l3 -39 -248 0 c-137 -1
-251 2 -253 5 -2 4 10 34 27 68 52 105 131 151 249 146 36 -1 66 -4 68 -5z"/>
<path d="M14815 10390 c-91 -24 -158 -75 -205 -155 -16 -27 -30 -43 -31 -35 0
8 -2 44 -4 80 -2 36 -3 72 -4 81 -1 12 -11 16 -47 14 -25 -1 -47 2 -50 7 -3 5
-10 5 -16 1 -7 -3 -35 -7 -65 -8 -29 -1 -54 -3 -55 -6 -2 -2 -1 -215 2 -474
l5 -469 125 -1 c69 -1 130 0 136 2 7 3 11 88 11 276 0 290 3 306 54 378 20 29
79 65 123 76 11 3 53 6 91 7 62 1 70 3 72 21 3 41 3 92 0 150 l-2 60 -55 2
c-30 1 -68 -2 -85 -7z"/>
<path d="M15464 10385 c-34 -7 -75 -20 -92 -29 -17 -9 -38 -16 -47 -16 -8 0
-15 -4 -15 -9 0 -5 -9 -13 -21 -16 -36 -12 -132 -117 -168 -184 -18 -35 -39
-89 -47 -120 -13 -56 -13 -199 0 -255 25 -106 132 -237 236 -288 48 -24 73
-32 165 -55 33 -9 308 -10 340 -2 17 4 64 15 104 25 107 23 111 27 95 81 -7
23 -12 43 -10 43 2 0 -2 17 -9 38 -13 36 -29 46 -50 31 -5 -4 -30 -10 -55 -14
-25 -4 -54 -9 -65 -12 -45 -11 -233 -9 -275 2 -112 31 -178 79 -211 155 -30
69 -54 65 364 68 l377 2 1 23 c3 51 1 153 -4 172 -31 125 -72 201 -143 264
-110 96 -295 134 -470 96z m228 -174 c49 -15 103 -78 122 -142 9 -30 12 -55 7
-58 -5 -3 -119 -6 -253 -5 l-243 0 4 25 c12 82 96 168 186 190 39 9 131 4 177
-10z"/>
<path d="M16348 9713 c-41 -12 -106 -62 -109 -85 -1 -4 -2 -12 -3 -17 0 -5 -4
-12 -7 -15 -10 -10 0 -77 16 -110 18 -36 72 -76 103 -76 12 0 22 -4 22 -9 0
-12 82 5 119 24 70 36 99 131 62 203 -38 75 -119 109 -203 85z"/>
<path d="M7839 8469 c-1 -2 -3 -57 -4 -121 l-2 -118 5159 0 c2837 0 5160 0
5163 0 28 1 115 -72 115 -97 0 -7 4 -13 8 -13 8 0 7 -89 -1 -120 -2 -8 -12
-33 -22 -55 -10 -22 -19 -44 -21 -50 -1 -5 -10 -28 -20 -50 -10 -22 -19 -43
-20 -47 -1 -5 -3 -10 -4 -13 -1 -3 -3 -8 -4 -12 -1 -5 -6 -15 -11 -23 -5 -8
-10 -20 -11 -27 -3 -16 -44 -72 -79 -105 -16 -16 -59 -44 -95 -61 l-65 -32
-1235 -2 c-679 -2 -1804 -4 -2500 -5 l-1265 -3 -55 -24 c-82 -37 -199 -135
-200 -168 0 -7 -4 -13 -8 -13 -5 0 -19 -30 -32 -67 -42 -120 -42 -157 -1 -268
18 -45 34 -93 36 -104 2 -12 7 -27 12 -34 4 -6 8 -16 9 -22 1 -5 8 -23 15 -40
7 -16 13 -33 14 -37 2 -5 4 -10 5 -13 1 -3 3 -8 5 -12 1 -5 4 -15 7 -23 3 -8
19 -50 34 -92 16 -43 32 -78 36 -78 5 0 8 -6 8 -13 0 -24 135 -148 182 -168
15 -6 28 -15 28 -20 0 -5 3 -8 8 -7 4 1 21 -5 37 -12 17 -7 33 -14 38 -15 4
-2 8 -3 10 -5 1 -1 9 -3 17 -5 8 -2 29 -6 45 -10 17 -3 44 -8 60 -10 17 -2
958 -4 2091 -5 l2062 0 28 -23 c61 -46 77 -78 76 -147 0 -42 -4 -58 -20 -87
-7 -12 -12 -29 -12 -37 0 -9 -5 -16 -12 -16 -6 0 -8 -3 -5 -6 3 -4 1 -16 -5
-28 -7 -11 -13 -25 -14 -31 -1 -5 -23 -59 -49 -120 -53 -127 -93 -182 -172
-241 -111 -83 64 -77 -2095 -77 -1055 -1 -1918 -3 -1918 -6 0 -3 18 -55 40
-115 22 -61 40 -110 40 -110 0 -1 861 1 1912 4 l1913 5 65 23 c105 38 188 90
262 164 37 37 68 73 68 77 0 5 6 16 13 23 14 14 39 65 82 168 43 102 48 114
50 125 2 6 19 48 38 95 44 108 62 217 44 270 -3 8 -12 37 -21 63 -33 105 -125
192 -241 232 -60 20 -74 20 -2120 19 -1133 -1 -2064 1 -2069 4 -5 3 -22 6 -37
7 -77 6 -206 97 -254 179 -19 33 -99 230 -109 271 -2 6 -6 18 -10 27 -4 9 -8
22 -10 30 -1 7 -5 19 -9 26 -5 6 -5 17 -2 22 3 6 1 10 -5 10 -14 0 -5 80 15
123 18 41 32 57 75 87 l35 25 2490 5 c2734 6 2512 1 2650 64 147 67 231 167
316 372 79 192 102 265 101 329 0 89 -30 188 -72 239 -31 38 -105 106 -116
106 -6 0 -17 7 -24 15 -7 9 -15 13 -18 11 -2 -3 -13 -1 -23 4 -28 16 -87 23
-189 24 -52 1 -100 5 -107 9 -6 4 -14 4 -17 -1 -6 -10 -86 -9 -102 0 -6 4 -14
4 -18 1 -10 -10 -376 -10 -382 -1 -3 5 -11 5 -17 1 -16 -10 -417 -10 -424 -1
-2 5 -10 5 -16 1 -17 -10 -77 -11 -83 -1 -3 5 -11 5 -17 1 -16 -10 -397 -11
-403 -1 -3 5 -11 5 -17 1 -16 -10 -417 -10 -424 -1 -2 5 -10 5 -16 1 -17 -10
-97 -11 -103 -1 -3 5 -11 5 -17 1 -16 -10 -377 -11 -383 -1 -3 5 -11 5 -17 1
-16 -10 -417 -10 -424 -1 -2 5 -10 5 -16 1 -17 -10 -77 -11 -83 -1 -3 5 -11 5
-17 1 -16 -10 -397 -11 -403 -1 -3 5 -11 5 -17 1 -16 -10 -417 -10 -424 -1 -2
5 -10 5 -16 1 -17 -10 -97 -11 -103 -1 -3 5 -11 5 -17 1 -16 -10 -377 -11
-383 -1 -3 5 -11 5 -17 1 -16 -10 -417 -10 -424 -1 -2 5 -10 5 -16 1 -17 -10
-77 -11 -83 -1 -3 5 -11 5 -17 1 -16 -10 -397 -11 -403 -1 -3 5 -11 5 -17 1
-16 -10 -417 -10 -424 -1 -2 5 -10 5 -16 1 -17 -10 -97 -11 -103 -1 -3 5 -11
5 -17 1 -16 -10 -377 -11 -383 -1 -3 5 -11 5 -17 1 -16 -10 -417 -10 -424 -1
-2 5 -10 5 -16 1 -17 -10 -77 -11 -83 -1 -3 5 -11 5 -17 1 -16 -10 -397 -11
-403 -1 -3 5 -11 5 -17 1 -16 -10 -417 -10 -424 -1 -2 5 -10 5 -16 1 -17 -10
-97 -11 -103 -1 -3 5 -11 5 -17 1 -16 -10 -377 -11 -383 -1 -3 5 -11 5 -17 1
-16 -10 -417 -10 -424 -1 -2 5 -10 5 -16 1 -17 -10 -77 -11 -83 -1 -3 5 -11 5
-17 1 -16 -10 -397 -11 -403 -1 -3 5 -11 5 -17 1 -16 -10 -417 -10 -424 -1 -2
5 -10 5 -16 1 -17 -10 -97 -11 -103 -1 -3 5 -11 5 -17 1 -18 -11 -360 -11
-374 0 -7 5 -14 8 -14 6z"/>
<path d="M14085 4893 c-11 -2 -27 -7 -35 -10 -8 -3 -23 -8 -34 -10 -44 -8
-143 -71 -196 -124 -100 -101 -147 -222 -137 -358 17 -250 240 -443 509 -442
49 0 97 5 108 11 11 6 20 9 20 6 0 -10 121 44 163 73 52 36 149 140 141 153
-3 4 -1 8 5 8 8 0 27 39 23 47 -1 1 5 15 13 30 l15 28 665 0 c366 1 669 -1
673 -5 4 -3 24 -40 45 -82 79 -162 256 -268 448 -269 147 0 281 54 384 157 21
21 85 116 85 127 0 3 5 18 12 34 15 37 13 30 23 98 10 74 9 94 -11 170 -9 33
-17 65 -18 70 -5 25 -65 105 -115 153 -92 90 -200 134 -335 138 -153 4 -281
-45 -384 -146 -55 -55 -122 -166 -122 -204 0 -14 -61 -15 -677 -13 l-678 2 -3
23 c-2 12 -8 22 -13 22 -6 0 -8 4 -4 9 6 11 -15 61 -27 61 -4 0 -8 7 -8 15 0
21 -108 128 -162 159 -88 51 -146 67 -253 70 -55 2 -109 1 -120 -1z m234 -252
c88 -46 142 -126 143 -214 1 -62 -18 -110 -61 -160 -29 -33 -105 -78 -141 -84
-78 -13 -149 -5 -209 23 -85 40 -141 127 -141 216 1 109 74 201 190 239 47 16
172 4 219 -20z m2326 0 c65 -30 109 -74 133 -131 15 -37 24 -119 14 -135 -4
-5 -7 -13 -8 -17 -1 -5 -3 -10 -4 -13 -1 -3 -3 -9 -4 -15 0 -5 -19 -30 -40
-56 -118 -140 -365 -126 -461 26 -13 21 -27 51 -30 67 -13 59 -14 82 -5 88 6
4 8 10 5 15 -9 14 32 86 69 124 78 78 223 99 331 47z"/>
</g>
</svg>
